# xmcd
#
# Track frame offsets:
#	150
#	11640
#	23175
#	37343
#	50813
#	65308
#	81063
#	92855
#	105050
#	115168
#	128628
#	143913
#	155238
#	169205
#	181265
#	193288
#	206025
#	217993
#	231750
#	248910
#
# Disc length: 3454 seconds
#
# Revision: 2
# Processed by: cddbd v1.5.2PL0 Copyright (c) Steve Scherf et al.
# Submitted via: audiograbber 1.83.01
#
DISCID=1e0d7c14
DTITLE=Conway Twitty - The Best Of
DYEAR=1996
DGENRE=Country
TTITLE0=It's Only Make Believe
TTITLE1=Hello Darlin'
TTITLE2=Fifteen Years Ago
TTITLE3=Danny Boy
TTITLE4=You've Never Been This Far Before
TTITLE5=Touch Of The Hand
TTITLE6=To See An Angel Cry
TTITLE7=She Needs Someone To Hold Her (When She Cries)
TTITLE8=I'll Try
TTITLE9=After All The Good Ones Are Gone
TTITLE10=After Our Last Date
TTITLE11=As Soon As I Hang Up The Phone
TTITLE12=Baby's Gone
TTITLE13=I Can't See Me Without You
TTITLE14=I'm Not Throgh Loving You Yet
TTITLE15=I've Hurt Her More Than She Loves Me
TTITLE16=(Lying Here With) Linda On My Mind
TTITLE17=The Games That Daddies Play
TTITLE18=Don't Cry Joni
TTITLE19=(I Can't Believe) She Gives It All To Me
EXTD=TORCD023\nTorpedo Music Ltd.\n
EXTT0=
EXTT1=
EXTT2=
EXTT3=
EXTT4=
EXTT5=
EXTT6=
EXTT7=
EXTT8=
EXTT9=
EXTT10=
EXTT11=
EXTT12=
EXTT13=
EXTT14=
EXTT15=
EXTT16=
EXTT17=
EXTT18=
EXTT19=
PLAYORDER=
